<svg xmlns="http://www.w3.org/2000/svg" viewBox="0 0 384 640" width="384" height="640">
<defs>
<style>.o{stroke:#211f1c;stroke-width:3;stroke-linejoin:round}.skin{fill:#e8bd98}.hair{fill:#c99a54}.j{fill:#356a9d}.p{fill:#292b2f}.shoe{fill:#17181a}.eye{fill:#55788b}.mouth{fill:none;stroke:#86594c;stroke-width:2;stroke-linecap:round}</style>
<g id="front">
 <ellipse class="o hair" cx="64" cy="34" rx="29" ry="26"/><ellipse class="o skin" cx="64" cy="43" rx="22" ry="24"/>
 <path class="hair" d="M40 31q13-26 39-19 12 3 14 17l-9 11q-7-13-20-10-13 4-22 12z"/>
 <circle class="eye" cx="56" cy="42" r="2.2"/><circle class="eye" cx="72" cy="42" r="2.2"/><path class="mouth" d="M57 54q7 5 14 0"/>
 <path class="o j" d="M40 68q24-11 48 0l7 39H33z"/><path d="M64 68v37" stroke="#244c72" stroke-width="2"/><circle cx="64" cy="80" r="1.8"/><circle cx="64" cy="91" r="1.8"/>
 <path class="o p" d="M42 106h18l-2 20H40zM68 106h18l2 20H70z"/><rect class="shoe" x="38" y="124" width="22" height="5" rx="2"/><rect class="shoe" x="69" y="124" width="22" height="5" rx="2"/>
 <path class="o skin" d="M44 78l11 11 9-5 9 5 11-11 5 7-15 13-10-6-10 6-15-13z"/>
</g>
<g id="left">
 <ellipse class="o hair" cx="64" cy="34" rx="29" ry="26"/><path class="o skin" d="M50 24q19-9 30 5l10 11-12 6q-1 18-20 20-20-5-20-22 0-12 12-20z"/>
 <circle class="eye" cx="47" cy="42" r="2.2"/><path class="hair" d="M40 31q14-27 43-7l-7 17q-7-13-22-9z"/>
 <path class="o j" d="M42 68q22-9 41 1l8 38H34z"/><path class="o p" d="M43 106h17l-4 20H39zM66 106h17l9 18-18 3z"/><path class="o skin" d="M42 78l-5 24 9 2 7-24z"/>
 <rect class="shoe" x="34" y="124" width="23" height="5" rx="2"/><rect class="shoe" x="74" y="123" width="22" height="5" rx="2"/>
</g>
<g id="right"><g transform="translate(128 0) scale(-1 1)"><use href="#left"/></g></g>
<g id="back">
 <ellipse class="o hair" cx="64" cy="35" rx="30" ry="27"/><path class="hair" d="M36 33q6-26 28-26 24 1 30 26l-5 20q-10 9-25 9-17 0-25-9z"/>
 <path class="o j" d="M40 67q24-10 48 0l8 41H32z"/><path class="o p" d="M41 107h19l-3 19H39zM68 107h18l3 19H70z"/>
 <path class="o skin" d="M38 78l-4 22 8 3 6-25zM90 78l4 22-8 3-6-25z"/><rect class="shoe" x="37" y="124" width="22" height="5" rx="2"/><rect class="shoe" x="69" y="124" width="22" height="5" rx="2"/>
</g>
</defs>
<g transform="translate(0 0)"><use href="#front"/></g><g transform="translate(128 0) translate(0 1)"><use href="#front"/></g><g transform="translate(256 0)"><use href="#front"/></g>
<g transform="translate(0 128)"><use href="#left"/></g><g transform="translate(128 128) translate(-3 1)"><use href="#left"/></g><g transform="translate(256 128) translate(3 0)"><use href="#left"/></g>
<g transform="translate(0 256)"><use href="#right"/></g><g transform="translate(128 256) translate(-3 1)"><use href="#right"/></g><g transform="translate(256 256) translate(3 0)"><use href="#right"/></g>
<g transform="translate(0 384)"><use href="#back"/></g><g transform="translate(128 384) translate(0 2)"><use href="#back"/></g><g transform="translate(256 384)"><use href="#back"/></g>
<g transform="translate(0 512) translate(-2 0)"><use href="#front"/></g><g transform="translate(128 512) translate(0 2)"><use href="#front"/></g><g transform="translate(256 512) translate(2 0)"><use href="#front"/></g>
</svg>